<?xml version="1.0" encoding="UTF-8"?><svg id="Layer_2" xmlns="http://www.w3.org/2000/svg" viewBox="0 0 354.331 294.456"><g id="Layer_1-2"><path d="M17.106,268.844c-2.443,0-4.705-.236-6.785-.707-2.08-.472-3.891-1.147-5.434-2.026-1.543-.878-2.744-1.972-3.601-3.28-.858-1.307-1.286-2.818-1.286-4.534v-.514c0-.171.021-.321.064-.45h9.325v.579c.042,1.029.428,1.865,1.157,2.508.729.643,1.693,1.104,2.894,1.383,1.2.279,2.465.418,3.794.418,1.243,0,2.454-.085,3.633-.257,1.179-.171,2.164-.514,2.958-1.029.793-.514,1.19-1.2,1.19-2.058,0-1.071-.473-1.865-1.415-2.379-.943-.514-2.241-.921-3.891-1.222-1.651-.299-3.505-.643-5.563-1.029-1.715-.299-3.355-.685-4.92-1.157-1.566-.471-2.969-1.082-4.212-1.833-1.244-.749-2.23-1.714-2.958-2.894-.73-1.179-1.093-2.647-1.093-4.405,0-1.843.407-3.43,1.222-4.759.814-1.328,1.972-2.421,3.473-3.28,1.5-.857,3.269-1.489,5.306-1.897,2.035-.407,4.233-.611,6.592-.611,2.186,0,4.244.204,6.173.611,1.929.408,3.601,1.008,5.016,1.8,1.415.794,2.54,1.791,3.376,2.99.836,1.201,1.254,2.551,1.254,4.052v.707c0,.215-.022.386-.064.514h-9.325v-.45c0-.814-.289-1.479-.868-1.993-.579-.514-1.373-.911-2.379-1.19-1.008-.279-2.154-.418-3.441-.418-.643,0-1.373.043-2.186.129-.815.087-1.598.236-2.347.45-.751.215-1.35.514-1.8.9-.45.386-.675.879-.675,1.479,0,.772.407,1.383,1.222,1.833.814.45,1.897.804,3.248,1.061,1.35.257,2.819.537,4.405.836,1.801.386,3.601.783,5.402,1.19,1.801.408,3.451.954,4.952,1.64,1.5.686,2.679,1.672,3.537,2.958.857,1.286,1.286,3.001,1.286,5.144,0,2.058-.418,3.805-1.254,5.241-.836,1.437-2.026,2.595-3.569,3.473-1.543.879-3.366,1.511-5.466,1.897-2.101.386-4.417.579-6.946.579Z"/><path d="M52.116,268.844c-4.03,0-7.149-1.029-9.357-3.086-2.209-2.058-3.312-5.295-3.312-9.711v-21.801h9.389v20.258c0,1.244.15,2.283.45,3.119.299.836.75,1.511,1.35,2.026.6.514,1.318.89,2.155,1.125.836.236,1.789.354,2.862.354,1.543,0,2.947-.343,4.212-1.029,1.264-.685,2.283-1.64,3.055-2.862.772-1.222,1.157-2.605,1.157-4.148v-18.843h9.453v33.827h-7.717l-.707-5.145h-.45c-1.029,1.33-2.187,2.434-3.473,3.312-1.286.879-2.712,1.533-4.277,1.961-1.566.428-3.162.643-4.791.643Z"/><path d="M80.457,279.841v-45.595h7.653l.836,4.887h.45c1.328-2.058,3.012-3.515,5.049-4.373,2.035-.857,4.254-1.286,6.656-1.286,3.129,0,5.841.622,8.135,1.865,2.293,1.244,4.062,3.173,5.306,5.788,1.243,2.615,1.865,5.96,1.865,10.032,0,3.987-.633,7.289-1.897,9.903-1.265,2.616-3.012,4.566-5.241,5.852-2.23,1.286-4.845,1.929-7.846,1.929-1.501,0-2.948-.172-4.341-.514-1.394-.342-2.669-.868-3.826-1.575-1.158-.707-2.145-1.576-2.958-2.605h-.386v15.692h-9.453ZM98.399,261.192c1.929,0,3.515-.354,4.759-1.061,1.243-.707,2.164-1.779,2.765-3.215.6-1.436.9-3.14.9-5.113v-1.286c0-2.058-.301-3.794-.9-5.209-.601-1.415-1.522-2.476-2.765-3.183-1.244-.707-2.852-1.061-4.823-1.061-1.844,0-3.398.386-4.663,1.157-1.265.772-2.23,1.876-2.894,3.312-.665,1.437-.997,3.141-.997,5.113v.9c0,1.458.193,2.798.579,4.02.386,1.222.932,2.25,1.64,3.087.707.836,1.585,1.469,2.636,1.897,1.05.429,2.304.643,3.762.643Z"/><path d="M139.937,268.844c-4.073,0-7.535-.633-10.386-1.897-2.852-1.264-5.027-3.204-6.527-5.82-1.502-2.614-2.251-5.938-2.251-9.968s.749-7.353,2.251-9.968c1.5-2.614,3.654-4.555,6.463-5.82,2.807-1.264,6.206-1.897,10.193-1.897,3.901,0,7.213.622,9.936,1.865,2.722,1.244,4.78,3.141,6.174,5.691,1.392,2.551,2.09,5.756,2.09,9.614v2.636h-27.395c.085,1.973.492,3.612,1.222,4.92.728,1.309,1.789,2.262,3.183,2.862,1.393.601,3.119.9,5.177.9,1.029,0,2.015-.117,2.958-.354.942-.235,1.8-.6,2.572-1.093.772-.492,1.415-1.104,1.929-1.833.514-.728.793-1.564.836-2.508h9.453c0,1.973-.44,3.752-1.318,5.338-.879,1.586-2.09,2.916-3.634,3.987-1.543,1.072-3.408,1.897-5.595,2.476-2.186.579-4.63.868-7.331.868ZM130.612,247.43h17.364c0-1.2-.204-2.251-.611-3.151-.408-.9-.976-1.65-1.704-2.251-.729-.6-1.586-1.039-2.572-1.318-.987-.278-2.08-.418-3.28-.418-1.844,0-3.419.268-4.727.804-1.309.537-2.326,1.34-3.055,2.412-.73,1.072-1.201,2.379-1.415,3.923Z"/><path d="M163.673,268.073v-33.827h7.717l.772,5.531h.45c.428-1.157,1.05-2.229,1.865-3.215.814-.986,1.811-1.758,2.991-2.315,1.179-.556,2.518-.836,4.019-.836.772,0,1.479.064,2.122.193.643.129,1.199.28,1.672.45v8.232h-3.73c-1.458,0-2.712.225-3.762.675-1.051.45-1.929,1.093-2.637,1.929-.707.836-1.222,1.812-1.543,2.926-.321,1.116-.482,2.379-.482,3.794v16.463h-9.453Z"/><path d="M203.423,268.844c-2.358,0-4.288-.364-5.788-1.093-1.501-.729-2.604-1.811-3.312-3.248-.707-1.436-1.061-3.226-1.061-5.37v-17.814h-5.209v-7.074h5.595l1.8-9.839h7.267v9.839h7.589v7.074h-7.589v16.463c0,1.286.268,2.262.804,2.926.535.666,1.553.997,3.055.997h3.73v6.109c-.558.172-1.244.331-2.058.482-.815.15-1.651.278-2.508.386-.859.107-1.63.161-2.315.161Z"/><path d="M232.799,268.844c-4.073,0-7.535-.633-10.386-1.897-2.852-1.264-5.027-3.204-6.527-5.82-1.502-2.614-2.251-5.938-2.251-9.968s.749-7.353,2.251-9.968c1.5-2.614,3.654-4.555,6.463-5.82,2.807-1.264,6.206-1.897,10.193-1.897,3.901,0,7.213.622,9.936,1.865,2.722,1.244,4.78,3.141,6.174,5.691,1.392,2.551,2.09,5.756,2.09,9.614v2.636h-27.395c.085,1.973.492,3.612,1.222,4.92.728,1.309,1.789,2.262,3.183,2.862,1.393.601,3.119.9,5.177.9,1.029,0,2.015-.117,2.958-.354.942-.235,1.8-.6,2.572-1.093.772-.492,1.415-1.104,1.929-1.833.514-.728.793-1.564.836-2.508h9.453c0,1.973-.44,3.752-1.318,5.338-.879,1.586-2.09,2.916-3.634,3.987-1.543,1.072-3.408,1.897-5.595,2.476-2.186.579-4.63.868-7.331.868ZM223.474,247.43h17.364c0-1.2-.204-2.251-.611-3.151-.408-.9-.976-1.65-1.704-2.251-.729-.6-1.586-1.039-2.572-1.318-.987-.278-2.08-.418-3.28-.418-1.844,0-3.419.268-4.727.804-1.309.537-2.326,1.34-3.055,2.412-.73,1.072-1.201,2.379-1.415,3.923Z"/><path d="M267.404,268.844c-1.501,0-3.001-.151-4.501-.45-1.502-.3-2.841-.793-4.02-1.479-1.18-.685-2.133-1.661-2.862-2.926-.73-1.264-1.093-2.883-1.093-4.855,0-2.529.6-4.576,1.8-6.142,1.2-1.565,2.936-2.743,5.209-3.537,2.272-.793,4.962-1.319,8.071-1.576,3.108-.257,6.527-.386,10.257-.386v-1.993c0-1.157-.247-2.111-.739-2.862-.493-.75-1.265-1.339-2.315-1.769-1.051-.428-2.455-.643-4.212-.643-1.543,0-2.862.161-3.955.482-1.093.321-1.929.74-2.508,1.254-.579.514-.868,1.115-.868,1.8v.772h-9.26c-.043-.257-.076-.471-.097-.643-.022-.17-.032-.386-.032-.643,0-1.971.664-3.698,1.993-5.177,1.328-1.479,3.269-2.615,5.82-3.408,2.55-.793,5.605-1.19,9.164-1.19s6.548.386,8.971,1.157c2.421.772,4.277,1.972,5.563,3.601,1.286,1.63,1.929,3.709,1.929,6.238v14.856c0,.772.203,1.362.611,1.768.407.408.91.611,1.511.611h2.701v6.045c-.472.215-1.222.439-2.251.675-1.029.235-2.229.354-3.601.354-1.587,0-2.894-.204-3.923-.611-1.029-.407-1.833-.964-2.412-1.672-.579-.707-.997-1.532-1.254-2.476h-.514c-.9.943-2.005,1.791-3.312,2.54-1.309.751-2.788,1.318-4.437,1.704-1.651.386-3.463.579-5.434.579ZM270.233,261.899c1.243,0,2.454-.161,3.634-.482,1.179-.321,2.24-.772,3.183-1.35.943-.579,1.714-1.307,2.315-2.186.6-.878.9-1.833.9-2.862v-1.865c-3.344,0-6.195.161-8.553.482-2.358.321-4.17.858-5.434,1.608-1.265.75-1.897,1.79-1.897,3.119,0,.858.257,1.543.772,2.058.514.514,1.222.89,2.122,1.125.9.236,1.886.354,2.958.354Z"/><path d="M298.124,268.073v-33.827h7.717l.772,5.08h.45c.9-1.328,1.983-2.432,3.248-3.312,1.264-.878,2.626-1.521,4.084-1.929,1.457-.407,2.958-.611,4.502-.611,2.614,0,4.823.461,6.624,1.383,1.8.922,3.172,2.411,4.115,4.469h.45c.942-1.328,2.047-2.432,3.312-3.312,1.264-.878,2.658-1.521,4.18-1.929,1.521-.407,3.075-.611,4.662-.611,2.529,0,4.683.429,6.463,1.286,1.778.858,3.161,2.23,4.148,4.116.986,1.887,1.479,4.288,1.479,7.203v21.994h-9.518v-20.386c0-1.2-.14-2.229-.418-3.087-.279-.857-.675-1.543-1.19-2.058s-1.169-.878-1.961-1.093c-.794-.214-1.64-.321-2.54-.321-1.415,0-2.712.333-3.891.997-1.18.665-2.122,1.607-2.829,2.829-.707,1.222-1.061,2.605-1.061,4.148v18.971h-9.389v-20.386c0-1.2-.151-2.229-.45-3.087-.301-.857-.719-1.543-1.254-2.058-.537-.514-1.18-.878-1.929-1.093-.75-.214-1.619-.321-2.604-.321-1.415,0-2.712.333-3.891.997-1.18.665-2.112,1.607-2.798,2.829-.686,1.222-1.029,2.605-1.029,4.148v18.971h-9.453Z"/><path d="M163.673,294.136v-18.306h15.034c.993,0,1.889.191,2.687.572.798.382,1.432.909,1.902,1.583.47.674.705,1.463.705,2.368,0,.799-.142,1.482-.425,2.049-.284.568-.67,1.029-1.157,1.384-.489.355-1.025.621-1.61.798v.107c.692.142,1.313.395,1.863.758s.985.856,1.304,1.477c.319.621.479,1.375.479,2.262,0,1.047-.253,1.938-.758,2.674-.506.737-1.184,1.3-2.036,1.69s-1.809.585-2.874.585h-15.113ZM169.075,283.067h7.45c.408,0,.754-.076,1.038-.227.283-.15.506-.359.665-.625.16-.266.239-.586.239-.958,0-.514-.177-.927-.532-1.237-.355-.31-.798-.465-1.33-.465h-7.53v3.512ZM169.075,290.278h7.903c.568,0,1.028-.155,1.384-.465.354-.311.532-.785.532-1.424,0-.337-.076-.639-.227-.905-.151-.266-.377-.474-.678-.625-.302-.15-.665-.226-1.091-.226h-7.823v3.645Z"/><path d="M201.297,294.136v-18.306h15.22c1.33,0,2.43.275,3.299.824.869.55,1.526,1.273,1.969,2.169s.665,1.876.665,2.94c0,1.153-.275,2.204-.825,3.153-.55.949-1.375,1.699-2.474,2.249l3.725,6.971h-6.12l-3.033-6.093h-7.025v6.093h-5.401ZM206.699,284.052h8.036c.656,0,1.179-.195,1.569-.585.39-.39.586-.913.586-1.57,0-.425-.089-.794-.266-1.104s-.425-.545-.745-.705-.701-.24-1.144-.24h-8.036v4.204Z"/><path d="M237.537,294.136l8.994-18.306h6.04l8.994,18.306h-5.88l-1.384-2.927h-9.792l-1.384,2.927h-5.588ZM246.318,287.245h6.173l-1.65-3.725c-.071-.16-.169-.395-.292-.705-.124-.31-.258-.638-.4-.984s-.266-.665-.372-.958c-.106-.292-.195-.509-.266-.652h-.186c-.124.319-.275.692-.453,1.118-.177.425-.342.834-.492,1.224-.151.39-.288.71-.412.958l-1.65,3.725Z"/><path d="M287.295,294.456c-1.49,0-2.883-.089-4.178-.266-1.295-.177-2.43-.487-3.406-.931-.976-.443-1.739-1.064-2.288-1.862-.55-.799-.824-1.81-.824-3.034v-.133c0-.054.008-.107.027-.16h5.322c-.018.071-.032.142-.04.213-.009.071-.013.151-.013.239,0,.55.208.98.626,1.291.417.311.998.528,1.743.651.745.124,1.623.186,2.634.186.408,0,.829-.013,1.264-.04.434-.027.855-.071,1.264-.133.408-.062.776-.155,1.104-.279.328-.124.585-.28.771-.466.187-.186.28-.421.28-.705,0-.372-.199-.669-.598-.891-.4-.222-.949-.399-1.65-.532-.701-.133-1.481-.253-2.341-.359-.86-.106-1.752-.235-2.674-.386-.922-.15-1.819-.355-2.687-.612-.869-.257-1.65-.598-2.341-1.024-.692-.426-1.242-.975-1.65-1.65-.408-.674-.612-1.49-.612-2.447,0-.975.244-1.814.732-2.515.488-.7,1.175-1.281,2.062-1.742.886-.461,1.933-.803,3.139-1.025s2.519-.333,3.939-.333c1.454,0,2.771.116,3.951.346,1.179.23,2.191.572,3.033,1.025.842.452,1.49,1.02,1.942,1.703.453.683.679,1.486.679,2.408v.372h-5.242v-.213c0-.372-.16-.705-.479-.998-.319-.293-.785-.523-1.397-.692-.612-.169-1.353-.253-2.222-.253-1.047,0-1.907.066-2.581.199-.675.133-1.171.311-1.49.532-.319.222-.479.475-.479.758,0,.355.204.634.612.838.408.204.958.368,1.65.492.692.124,1.468.239,2.328.346.86.106,1.756.23,2.687.372.932.142,1.827.337,2.688.585.86.249,1.636.581,2.328.998s1.241.949,1.65,1.596c.408.648.612,1.441.612,2.381,0,1.473-.426,2.661-1.278,3.565-.851.905-2.018,1.561-3.499,1.969-1.482.408-3.18.612-5.096.612Z"/><path d="M313.903,294.136v-18.306h5.401v18.306h-5.401Z"/><path d="M337.132,294.136v-18.306h5.401v13.942h11.761v4.364h-17.162Z"/><path d="M161.638.004v80.48h-34.116l10.826,4.482c34.35,15.908,32.848,72.498-11.264,72.498h-52.049v-80.48h37.613c-.497,0-8.423-1.978-10.294-2.806-2.864-1.268-6.728-2.801-9.556-4.897C63.014,48.64,70.18.004,111.339.004h50.3Z"/><path d="M279.737,24.505v19.672c0,17.662-17.866,34.483-34.646,37.089-3.109.489-6.229.563-9.096.563v18.375c-8.865.204-17.608,2.539-25.373,6.761-3.082,1.683-6.014,3.652-8.716,5.892-1.276,1.032-2.512,2.145-3.679,3.299-.652.638-1.29,1.303-1.914,1.968-.204.217-.394.421-.57.638h-.014c-1.018,1.154-2.009,2.349-2.946,3.57-.149.204-.299.407-.448.611-2.444,3.326-4.521,6.924-6.177,10.698v.014c-.489,1.127-.95,2.281-1.358,3.435-1.656-2.539-3.109-5.362-4.344-8.512-8.39-21.45-5.213-76.188-5.729-101.86-.19-8.892.204-17.825.027-26.717h61.241v24.521l1.317-.016h42.425Z"/><path d="M279.205,150.525l-2.806-1.797c-.007-.042-.014-.081-.021-.123l-39.063-24.944-.032.021-39.007,24.923c-.018.018-.021.042-.021.067l-2.806,1.794c.091-.71.204-1.41.334-2.106.042-.285.095-.57.151-.855.394-1.917.921-3.787,1.561-5.595v-.014c.338-.949.707-1.885,1.101-2.81h.011c1.262-2.877,2.824-5.591,4.67-8.102.109-.151.232-.299.341-.45.707-.935,1.452-1.846,2.226-2.715h.014c.134-.162.285-.327.422-.475.475-.517.964-1.02,1.452-1.495.893-.883,1.818-1.709,2.796-2.511,2.036-1.684,4.248-3.176,6.597-4.452,5.634-3.07,12.055-4.902,18.87-5.106.447-.011.883-.025,1.329-.025,7.318,0,14.2,1.857,20.203,5.131,4.058,2.212,7.723,5.078,10.831,8.458.151.148.299.313.436.475h.014c.774.869,1.519,1.779,2.226,2.715.109.151.218.299.338.45,1.836,2.511,3.408,5.226,4.67,8.102.408.925.774,1.86,1.115,2.81v.014c.636,1.808,1.153,3.678,1.547,5.595.2.995.369,2.001.499,3.021Z"/><path d="M258.386,155.986c0,.707-.035,1.421-.105,2.124-4.484-3.562-9.46-6.369-14.816-8.359-6.038-2.244-12.393-3.38-18.892-3.38-2.061,0-4.129.116-6.168.352,3.527-7.192,10.874-11.798,18.92-11.798,11.612,0,21.061,9.446,21.061,21.061Z"/><path d="M257.545,161.894c-.035.123-.074.25-.112.373l-.032.102c-2.789,8.778-10.859,14.679-20.077,14.679-11.612,0-21.061-9.449-21.061-21.061,0-1.758.218-3.506.647-5.198l.025-.098c.032-.123.067-.25.102-.373,2.483-.369,5.011-.556,7.536-.556,12.118,0,23.78,4.297,32.972,12.133Z"/><path d="M279.215,161.377c-.134,1.044-.302,2.075-.51,3.095-.394,1.917-.911,3.787-1.547,5.595-.341.949-.707,1.885-1.115,2.81-1.262,2.891-2.834,5.606-4.67,8.106-.12.162-.229.309-.338.461-.707.935-1.452,1.832-2.226,2.701-.014,0-.014.014-.014.014-.137.148-.285.313-.436.475-3.109,3.365-6.773,6.232-10.831,8.458-6.003,3.271-12.885,5.131-20.203,5.131s-14.2-1.86-20.2-5.131c-2.349-1.291-4.561-2.782-6.597-4.466-.978-.788-1.903-1.628-2.796-2.497-.489-.489-.978-.992-1.452-1.495-.137-.162-.288-.327-.422-.475-.014,0-.014-.014-.014-.014-.774-.869-1.519-1.765-2.226-2.701-.109-.151-.232-.299-.341-.461-1.846-2.5-3.418-5.215-4.681-8.106-.394-.925-.763-1.86-1.101-2.81-.64-1.808-1.167-3.678-1.561-5.595-.204-1.002-.369-2.015-.499-3.038l2.792,1.786c.007.042.018.084.025.127l38.997,24.898.067.042,39.063-24.94c.01-.056.021-.116.032-.172l2.806-1.797Z"/><polygon points="237.247 188.245 237.282 188.224 237.314 188.245 237.247 188.245"/><polygon points="237.314 123.661 237.282 123.682 237.247 123.661 237.314 123.661"/></g></svg>